<svg xmlns="http://www.w3.org/2000/svg" width="101" height="40" viewBox="0 0 101 40" fill="none"><path d="M16.1168 40L17.6869 37.1208C17.7166 37.0712 17.7414 37.0117 17.7463 36.9471C17.7612 36.7535 17.6225 36.5798 17.4343 36.55C14.2347 36.0685 11.258 34.6637 8.83106 32.4944C8.76172 32.4299 8.67257 32.4001 8.58341 32.4001C8.48931 32.4001 8.3952 32.4348 8.32091 32.5093L3.15006 37.6868L2.30311 36.8379L7.46901 31.6604C7.60769 31.5214 7.61264 31.2981 7.48387 31.1492C5.31449 28.7168 3.90786 25.7334 3.42742 22.5217C3.40761 22.4026 3.33332 22.2983 3.22435 22.2437C3.17482 22.2189 3.11539 22.204 3.06091 22.204C3.00147 22.204 2.93708 22.2189 2.8826 22.2487L0 23.8372V16.1479L2.88755 17.7215C2.94204 17.7513 3.00642 17.7662 3.06586 17.7662C3.12034 17.7662 3.17978 17.7513 3.22931 17.7265C3.33827 17.6719 3.41256 17.5676 3.43238 17.4485C4.52202 10.2854 10.2823 4.52718 17.4343 3.44502C17.6275 3.41524 17.7661 3.24151 17.7513 3.04791C17.7463 2.97841 17.7216 2.91388 17.6869 2.86424L16.1218 0H23.7938L22.2337 2.86918C22.199 2.91882 22.1742 2.98338 22.1693 3.04791C22.1544 3.24151 22.2882 3.41524 22.4813 3.44502C24.8785 3.81236 27.1965 4.71086 29.2222 6.06107L26.8845 8.40406C25.5769 8.68205 24.096 9.25292 22.5903 10.0621C20.1683 11.3626 17.6968 13.239 15.4531 15.4877C14.5814 16.3564 13.7642 17.2648 13.0163 18.1931C12.7686 17.8357 12.5408 17.4733 12.3229 17.1209C13.0311 16.2621 13.7939 15.4232 14.5913 14.6289C15.8097 13.4078 17.1024 12.2859 18.4298 11.2931C18.5289 11.2187 18.5834 11.0995 18.5784 10.9754C18.5735 10.8513 18.5041 10.7372 18.4001 10.6726C18.0435 10.4542 17.6819 10.2507 17.3253 10.0621C16.5081 9.62522 13.6651 8.19559 11.2778 8.19559C10.2674 8.19559 9.4898 8.46362 8.96479 8.98485C7.93953 10.0124 7.91477 12.1519 8.9004 14.8573C9.95537 17.7414 12.0356 20.9183 14.7647 23.8074C14.834 23.8819 14.9281 23.9216 15.0272 23.9216H15.0321C15.1312 23.9216 15.2253 23.8818 15.2946 23.8123L17.256 21.8466C17.3699 21.7324 17.3996 21.5537 17.3204 21.4098C17.0925 20.9779 16.9687 20.4914 16.9687 20.005C16.9687 18.3569 18.306 17.0166 19.9504 17.0166C20.4407 17.0166 20.9261 17.1358 21.352 17.3691C21.4065 17.3988 21.466 17.4138 21.5254 17.4138C21.6195 17.4138 21.7186 17.374 21.7879 17.3045L23.7542 15.3388C23.8236 15.2693 23.8632 15.17 23.8632 15.0707C23.8632 14.9714 23.8186 14.8722 23.7493 14.8076C23.1054 14.1971 22.4417 13.6163 21.773 13.0702C22.1346 12.832 22.5011 12.6036 22.8676 12.3902C23.462 12.8866 24.0514 13.4127 24.6259 13.9538C24.6953 14.0233 24.7894 14.0581 24.8835 14.0581C24.9776 14.0581 25.0717 14.0233 25.146 13.9489L33.5412 5.53982C33.6105 5.47033 33.6502 5.37603 33.6502 5.27674C33.6502 5.17746 33.6105 5.08313 33.5412 5.01364L31.6393 3.10747L39.1628 1.60833L32.4416 8.3445C32.303 8.48349 32.298 8.70686 32.4268 8.85578C34.5863 11.2832 35.9879 14.2517 36.4733 17.4485C36.4931 17.5676 36.5674 17.6768 36.6764 17.7314C36.7309 17.7612 36.7903 17.7711 36.8497 17.7711C36.9092 17.7711 36.9637 17.7563 37.0181 17.7265L39.9007 16.138V23.8223L37.0181 22.2239C36.9637 22.1941 36.8993 22.1792 36.8398 22.1792C36.7358 22.1792 36.6318 22.2239 36.5625 22.3033C36.5129 22.3629 36.4832 22.4323 36.4733 22.5068C36.4585 22.6408 34.8735 34.4552 22.4466 36.5401C22.2535 36.5699 22.1198 36.7436 22.1396 36.9372C22.1495 37.0464 22.204 37.1407 22.2832 37.2003L23.7938 39.9851H16.1168V40ZM17.3649 31.3428C17.3105 31.3428 17.251 31.3576 17.2015 31.3825C15.5324 32.2065 13.9722 32.7277 12.5606 32.9312C12.4021 32.956 12.2783 33.0752 12.2486 33.2341C12.2189 33.3929 12.2932 33.5517 12.4318 33.6262C14.7201 34.897 17.3204 35.5671 19.9504 35.5671C22.5804 35.5671 25.1807 34.897 27.4689 33.6262C27.6076 33.5468 27.6819 33.3929 27.6522 33.2341C27.6224 33.0752 27.4986 32.956 27.3401 32.9312C25.9285 32.7277 24.3684 32.2065 22.6992 31.3825C22.6497 31.3576 22.5903 31.3428 22.5358 31.3428C22.4665 31.3428 22.3971 31.3626 22.3377 31.3974C22.2287 31.4669 22.1643 31.586 22.1643 31.7151V33.4673C21.4362 33.5865 20.6933 33.646 19.9504 33.646C19.2074 33.646 18.4595 33.5865 17.7265 33.4624V31.7101C17.7265 31.581 17.6621 31.4619 17.5532 31.3924C17.4937 31.3527 17.4244 31.3378 17.355 31.3378L17.3649 31.3428ZM18.3704 22.5962C18.2763 22.5962 18.1772 22.6359 18.1079 22.7054L16.1465 24.6711C16.0772 24.7406 16.0376 24.8399 16.0376 24.9392C16.0376 25.0385 16.0821 25.1378 16.1564 25.2023C20.3912 29.2132 25.2698 31.8044 28.5883 31.8044C29.4748 31.8044 30.1831 31.6158 30.6982 31.2435C30.7131 31.2336 30.7279 31.2236 30.7378 31.2087C30.8815 31.0697 31.0251 30.9258 31.1638 30.7769C31.1737 30.7669 31.1836 30.752 31.1935 30.7421C32.9072 28.4388 30.4159 23.5691 29.2668 21.5885C29.2024 21.4793 29.0935 21.4098 28.9647 21.4048C28.9597 21.4048 28.9498 21.4048 28.9449 21.4048C28.826 21.4048 28.717 21.4594 28.6477 21.5537C27.6621 22.8741 26.5477 24.1648 25.3243 25.386C24.5219 26.1901 23.6849 26.9496 22.833 27.6594C22.4764 27.441 22.1198 27.2077 21.7582 26.9645C22.6844 26.21 23.5957 25.3909 24.4625 24.5222C27.5382 21.4395 29.8661 18.0094 31.0152 14.8672C31.7284 12.9064 31.9216 11.1839 31.5452 10.0124C31.5055 9.8883 31.4065 9.79398 31.2777 9.7642C31.248 9.75923 31.2183 9.75426 31.1886 9.75426C31.0895 9.75426 30.9954 9.79399 30.926 9.86349L25.9929 14.8027C25.8493 14.9466 25.8493 15.175 25.988 15.3239C26.5328 15.8997 27.0578 16.4904 27.5531 17.0861C27.3401 17.4535 27.1123 17.8158 26.8746 18.1782C26.3297 17.5081 25.7453 16.8429 25.1361 16.1976C25.0667 16.1231 24.9726 16.0834 24.8736 16.0834H24.8686C24.7696 16.0834 24.6755 16.1231 24.6061 16.1926L22.6448 18.1584C22.5308 18.2725 22.5011 18.4512 22.5804 18.6001C22.8132 19.032 22.932 19.5185 22.932 20.0099C22.932 21.658 21.5947 22.9983 19.9504 22.9983C19.46 22.9983 18.9697 22.8742 18.5388 22.6458C18.4843 22.616 18.4249 22.6011 18.3654 22.6011L18.3704 22.5962ZM15.0222 25.9518C14.9281 25.9518 14.834 25.9866 14.7597 26.0611L9.8266 31.0002C9.73745 31.0896 9.69782 31.2236 9.72754 31.3527C9.75726 31.4768 9.85136 31.581 9.97519 31.6207C10.3615 31.7448 10.8172 31.8094 11.3273 31.8094C12.9618 31.8094 15.0916 31.1491 17.3204 29.9528C17.6621 29.7691 18.0237 29.5656 18.3952 29.3373C18.4992 29.2728 18.5685 29.1586 18.5735 29.0345C18.5784 28.9104 18.5239 28.7912 18.4249 28.7168C17.3501 27.9126 16.2902 27.0141 15.2748 26.0511C15.2055 25.9816 15.1114 25.9469 15.0173 25.9469L15.0222 25.9518ZM10.941 21.3899C10.8172 21.3949 10.7033 21.4644 10.6389 21.5686C9.90584 22.7898 9.31645 23.996 8.89545 25.1526C8.18223 27.1084 7.99402 28.826 8.36053 29.9975C8.40016 30.1216 8.49921 30.2159 8.62799 30.2457C8.65771 30.2507 8.68743 30.2556 8.71714 30.2556C8.8162 30.2556 8.91031 30.2159 8.97965 30.1464L13.9078 25.2122C14.0514 25.0682 14.0514 24.8399 13.9128 24.691C12.9519 23.6734 12.0554 22.616 11.253 21.5388C11.1837 21.4445 11.0698 21.3899 10.9559 21.3899C10.9509 21.3899 10.946 21.3899 10.9361 21.3899H10.941ZM6.68645 12.2561C6.55272 12.2561 6.42889 12.3256 6.35955 12.4497C5.08665 14.7481 4.4081 17.3591 4.4081 20C4.4081 22.6408 5.0817 25.2569 6.35955 27.5552C6.42394 27.6744 6.55272 27.7488 6.68149 27.7488C6.7013 27.7488 6.72607 27.7488 6.75083 27.7439C6.90933 27.7141 7.0282 27.59 7.05296 27.4311C7.25603 26.0114 7.77609 24.4428 8.60323 22.7699C8.65771 22.6557 8.65276 22.5168 8.58341 22.4075C8.51407 22.2983 8.3952 22.2338 8.26643 22.2338H6.49823C6.37936 21.4991 6.31498 20.7496 6.31498 20.005C6.31498 19.2604 6.37441 18.5207 6.49328 17.791H8.26147C8.39025 17.791 8.50912 17.7265 8.57846 17.6173C8.6478 17.5081 8.65276 17.374 8.59827 17.2549C7.77114 15.5721 7.25108 14.0035 7.04801 12.5838C7.0282 12.4249 6.90437 12.3008 6.74588 12.271C6.72112 12.271 6.7013 12.2661 6.67654 12.2661L6.68645 12.2561ZM31.6393 22.2288C31.5105 22.2288 31.3916 22.2934 31.3223 22.4026C31.2529 22.5118 31.248 22.6508 31.3025 22.7649C32.1247 24.4378 32.6497 26.0015 32.8527 27.4162C32.8775 27.5751 32.9964 27.6992 33.1549 27.729C33.1796 27.729 33.1994 27.7339 33.2242 27.7339C33.3579 27.7339 33.4818 27.6644 33.5511 27.5403C34.824 25.2469 35.4976 22.6359 35.4976 19.995C35.4976 17.3542 34.824 14.753 33.556 12.4597C33.4917 12.3405 33.3629 12.2661 33.2292 12.2661C33.2093 12.2661 33.1846 12.2661 33.1598 12.271C33.0013 12.3008 32.8825 12.4249 32.8577 12.5838C32.6546 13.9985 32.1346 15.5671 31.3124 17.245C31.2579 17.3591 31.2628 17.4981 31.3322 17.6073C31.4015 17.7165 31.5204 17.7811 31.6492 17.7811H33.4075C33.5263 18.5108 33.5858 19.2554 33.5858 19.995C33.5858 20.7347 33.5263 21.4892 33.4025 22.2239H31.6442L31.6393 22.2288ZM22.1742 8.30478C22.1742 8.43384 22.2386 8.55299 22.3476 8.62248C22.407 8.66219 22.4764 8.67708 22.5457 8.67708C22.6002 8.67708 22.6596 8.66218 22.7091 8.63736C24.3882 7.80837 25.9583 7.28221 27.3798 7.08365C27.5382 7.0638 27.6621 6.93968 27.6918 6.78579C27.7215 6.62694 27.6472 6.46811 27.5085 6.39365C25.2104 5.11293 22.6002 4.43286 19.9553 4.43286C17.3105 4.43286 14.7003 5.11293 12.4021 6.39365C12.2634 6.47307 12.1891 6.63191 12.2189 6.78579C12.2486 6.94464 12.3724 7.06377 12.5309 7.08859C13.9524 7.28715 15.5225 7.81334 17.2065 8.64233C17.256 8.66715 17.3154 8.68205 17.3699 8.68205C17.4392 8.68205 17.5086 8.6622 17.568 8.62745C17.677 8.55796 17.7414 8.43881 17.7414 8.30975V6.53262C18.4694 6.41349 19.2124 6.35393 19.9553 6.35393C20.6983 6.35393 21.4462 6.41349 22.1792 6.53759V8.31472L22.1742 8.30478Z" fill="#B9915B"></path><path d="M60.2226 34.9963C51.8274 34.9963 45.4976 28.543 45.4976 19.9801C45.4976 10.1216 52.9071 4.96399 60.2226 4.96399C66.6862 4.96399 72.8575 9.31741 73.9769 14.5644H67.5034C66.5475 12.5043 63.9274 10.3747 60.2226 10.3747C54.5961 10.3747 51.238 15.2544 51.238 19.9752C51.238 25.5398 55.2152 29.5756 60.6931 29.5756C66.7208 29.5756 68.489 24.691 68.7812 23.7131L68.9249 23.2365H60.5297L63.3826 17.8654H74.3731C74.487 18.5406 74.6009 19.9007 74.6009 20.958C74.6009 25.3263 73.0259 28.9848 70.0541 31.5264C67.4786 33.7255 63.8927 34.9913 60.2176 34.9913L60.2226 34.9963Z" fill="#F5F4F3"></path><path d="M92.273 34.5693V28.4139H77.647V24.6065L87.8599 5.39581H94.1848L84.591 23.4301H92.273V16.3812H97.845V23.4301H101V28.4139H97.845V34.5693H92.273Z" fill="#F5F4F3"></path></svg>